<svg width="24" height="24" viewBox="0 0 24 24" fill="none" xmlns="http://www.w3.org/2000/svg">
<path d="M2 18.0048C2 18.5544 2.44556 19 2.99519 19L11.0048 19C11.5544 19 12 18.5544 12 18.0048C12 17.4552 11.5544 17.0096 11.0048 17.0096L2.99519 17.0096C2.44556 17.0096 2 17.4552 2 18.0048Z" fill="#121212"/>
<path d="M2 12.0002C2 12.5499 2.44556 12.9954 2.99519 12.9954L21.0048 12.9954C21.5544 12.9954 22 12.5499 22 12.0002C22 11.4506 21.5544 11.0051 21.0048 11.0051L2.9952 11.0051C2.44557 11.0051 2 11.4506 2 12.0002Z" fill="#121212"/>
<path d="M2.9952 6.99039C2.44557 6.99039 2 6.54482 2 5.99519C2 5.44556 2.44557 5 2.9952 5L15.0048 5C15.5544 5 16 5.44556 16 5.99519C16 6.54483 15.5544 6.99039 15.0048 6.99039L2.9952 6.99039Z" fill="#121212"/>
</svg>
