<svg width="20" height="20" viewBox="0 0 20 20" fill="none" xmlns="http://www.w3.org/2000/svg">
<path fill-rule="evenodd" clip-rule="evenodd" d="M10 18.3334C5.4 18.3334 1.66667 14.6084 1.66667 10.0001C1.66667 5.40008 5.4 1.66675 10 1.66675C14.6083 1.66675 18.3333 5.40008 18.3333 10.0001C18.3333 14.6084 14.6083 18.3334 10 18.3334ZM12.6583 13.0917C12.7583 13.1501 12.8667 13.1834 12.9833 13.1834C13.1917 13.1834 13.4 13.0751 13.5167 12.8751C13.6917 12.5834 13.6 12.2001 13.3 12.0167L10.3333 10.2501V6.40008C10.3333 6.05008 10.05 5.77508 9.70833 5.77508C9.36667 5.77508 9.08333 6.05008 9.08333 6.40008V10.6084C9.08333 10.8251 9.2 11.0251 9.39167 11.1417L12.6583 13.0917Z" fill="black"/>
</svg>
